<?xml version="1.0" standalone="no"?>
<!DOCTYPE svg PUBLIC "-//W3C//DTD SVG 20010904//EN"
 "http://www.w3.org/TR/2001/REC-SVG-20010904/DTD/svg10.dtd">
<svg version="1.0" xmlns="http://www.w3.org/2000/svg"
 width="690.000000pt" height="690.000000pt" viewBox="0 0 690.000000 690.000000"
 preserveAspectRatio="xMidYMid meet">
<metadata>
Created by potrace 1.11, written by Peter Selinger 2001-2013
</metadata>
<g transform="translate(0.000000,690.000000) scale(0.100000,-0.100000)"
fill="#000000" stroke="none">
<path d="M4607 6877 c3 -5 -11 -8 -36 -5 -22 2 -41 0 -41 -4 0 -4 -7 -4 -17
-1 -12 5 -14 3 -8 -8 8 -12 6 -12 -8 0 -14 11 -20 11 -32 1 -11 -9 -15 -9 -15
-1 0 9 -5 9 -20 1 -11 -6 -25 -8 -30 -5 -6 3 -10 2 -10 -3 0 -6 -9 -8 -19 -5
-10 3 -28 0 -40 -6 -16 -9 -21 -9 -21 1 0 8 -3 9 -8 3 -4 -5 -18 -12 -32 -14
-14 -1 -28 -8 -32 -15 -5 -7 -8 -6 -8 4 0 9 -3 11 -8 5 -8 -11 -28 -17 -52
-18 -8 0 -21 -5 -29 -11 -12 -9 -13 -8 -6 4 6 12 5 13 -6 3 -7 -7 -24 -13 -37
-13 -16 0 -21 -4 -16 -12 5 -9 2 -9 -9 1 -12 9 -17 10 -17 2 0 -7 -4 -9 -10
-6 -5 3 -10 1 -10 -6 0 -7 -3 -9 -7 -6 -3 4 -12 2 -20 -4 -7 -6 -13 -8 -13 -4
0 4 -12 0 -26 -10 -15 -9 -24 -12 -20 -6 4 5 -6 4 -21 -4 -15 -8 -34 -15 -40
-15 -7 0 -13 -5 -13 -12 0 -6 -3 -8 -7 -5 -3 4 -12 2 -20 -4 -10 -9 -13 -8
-13 0 0 7 -5 9 -10 6 -6 -4 -7 -12 -4 -18 4 -7 4 -9 -1 -5 -4 4 -15 2 -23 -5
-13 -10 -14 -9 -8 2 6 9 0 8 -17 -4 -15 -9 -31 -14 -36 -11 -5 4 -16 -3 -24
-15 -8 -11 -22 -21 -30 -23 -8 -1 -21 -7 -29 -14 -8 -6 -18 -9 -21 -5 -4 3 -7
1 -7 -6 0 -7 -4 -10 -9 -7 -4 3 -19 -3 -31 -14 -12 -11 -27 -17 -31 -14 -5 3
-9 1 -9 -5 0 -5 -9 -8 -19 -6 -14 3 -18 -1 -14 -11 3 -8 -1 -14 -11 -14 -9 0
-16 -4 -16 -10 0 -5 -7 -6 -17 -3 -9 4 -14 2 -10 -3 3 -6 -10 -18 -29 -29 -19
-10 -34 -22 -34 -28 0 -5 -6 -7 -14 -4 -7 3 -20 -3 -29 -14 -9 -10 -24 -19
-32 -19 -10 0 -13 -5 -9 -12 5 -8 2 -9 -9 -5 -10 4 -16 2 -14 -6 1 -7 -4 -11
-10 -10 -7 2 -13 -4 -13 -12 0 -9 -6 -12 -17 -8 -10 3 -15 3 -11 -1 8 -10 -23
-46 -40 -46 -7 0 -10 -5 -6 -12 4 -6 3 -8 -4 -4 -6 3 -17 -3 -26 -15 -9 -13
-19 -18 -28 -13 -7 4 -10 4 -6 -1 10 -11 -20 -38 -33 -29 -8 4 -9 3 -5 -4 4
-7 2 -12 -4 -12 -6 0 -8 -5 -4 -12 4 -7 3 -8 -4 -4 -12 7 -6 31 12 55 9 12 8
13 -4 6 -13 -7 -13 -6 -2 7 7 9 12 20 11 24 -1 5 0 11 1 14 5 14 12 48 14 69
2 14 8 27 15 29 9 3 9 8 -1 20 -10 12 -10 14 0 8 11 -6 17 11 13 37 0 4 4 7
10 7 7 0 9 9 6 21 -4 16 -3 18 8 9 11 -9 12 -7 8 9 -3 13 -1 21 6 21 7 0 10 4
6 9 -3 5 -1 12 5 16 6 4 8 11 5 16 -4 5 0 9 7 9 11 0 10 2 0 9 -11 7 -10 9 3
15 9 3 13 11 10 16 -5 8 -11 8 -20 0 -10 -8 -14 -7 -18 2 -4 10 -6 10 -6 1 -1
-7 -8 -13 -16 -13 -8 0 -15 -5 -15 -10 0 -6 -6 -10 -12 -9 -7 1 -26 -3 -41 -9
-16 -7 -33 -12 -38 -12 -5 0 -9 -4 -9 -10 0 -5 -3 -9 -7 -9 -22 4 -41 -3 -60
-20 -16 -15 -23 -17 -32 -8 -10 9 -12 9 -9 -3 2 -8 -3 -14 -9 -12 -7 1 -13 -3
-13 -10 0 -6 -3 -8 -7 -5 -3 4 -12 -1 -20 -11 -10 -11 -12 -12 -8 -2 4 10 2 9
-8 -2 -8 -10 -17 -15 -20 -11 -4 3 -7 1 -7 -6 0 -7 -4 -9 -10 -6 -5 3 -10 2
-10 -4 0 -6 -11 -13 -25 -17 -14 -4 -24 -9 -21 -12 6 -5 -38 -42 -51 -42 -5 0
-15 -9 -23 -19 -7 -11 -17 -18 -22 -15 -4 3 -8 0 -8 -7 0 -7 -3 -9 -7 -6 -3 4
-12 -1 -19 -11 -7 -9 -18 -17 -26 -17 -7 0 -13 -5 -13 -12 0 -7 -6 -18 -14
-25 -12 -11 -13 -10 -6 2 6 10 1 8 -13 -4 -12 -11 -22 -25 -22 -33 0 -7 -5
-12 -12 -11 -7 2 -12 -2 -13 -9 0 -7 -6 -18 -14 -25 -12 -11 -13 -11 -6 1 5 9
4 12 -3 7 -7 -4 -12 -14 -12 -23 0 -9 -3 -14 -6 -10 -8 8 -33 -16 -27 -25 2
-5 -1 -8 -7 -8 -6 0 -8 -4 -5 -10 6 -9 -8 -14 -28 -11 -5 1 -6 -2 -3 -7 3 -5
-8 -24 -24 -43 -16 -19 -29 -40 -30 -47 0 -7 -4 -11 -9 -8 -5 3 -19 -14 -32
-38 -13 -25 -27 -42 -31 -40 -4 3 -8 -2 -8 -11 0 -18 -20 -57 -35 -67 -5 -4
-11 -12 -11 -18 -1 -5 -2 -15 -3 -21 0 -5 -7 -7 -13 -3 -7 4 -10 4 -6 -1 4 -4
3 -14 -3 -22 -6 -7 -8 -13 -3 -13 4 0 -1 -7 -12 -16 -10 -8 -12 -12 -4 -8 13
7 13 5 2 -9 -8 -9 -11 -21 -7 -27 3 -5 -1 -13 -9 -16 -9 -3 -13 -10 -10 -15 3
-5 -2 -12 -11 -15 -13 -6 -14 -8 -3 -15 10 -7 11 -9 0 -9 -7 0 -11 -4 -8 -9 3
-5 -1 -12 -10 -15 -9 -4 -14 -13 -10 -21 3 -8 0 -15 -6 -15 -6 0 -5 -6 3 -17
10 -11 10 -14 2 -9 -7 4 -14 2 -14 -3 -3 -26 -4 -30 -11 -37 -4 -4 -2 -14 5
-22 8 -11 8 -14 0 -9 -6 4 -14 3 -18 -3 -3 -5 -1 -10 6 -10 9 0 8 -5 -3 -17
-8 -10 -14 -30 -13 -44 1 -20 -3 -25 -17 -21 -10 2 -18 13 -18 23 0 11 -5 19
-11 19 -5 0 -8 4 -4 9 3 6 -3 14 -12 20 -10 6 -12 11 -5 11 7 0 4 8 -8 20 -12
12 -18 25 -15 30 3 4 0 10 -7 12 -6 2 -13 13 -14 24 -7 52 -23 94 -37 94 -7 0
-6 4 3 10 10 6 11 10 3 10 -7 0 -13 9 -13 19 0 11 -6 22 -12 24 -10 4 -10 6
-1 6 9 1 7 8 -5 21 l-17 21 -6 -23 c-3 -13 -11 -22 -16 -21 -6 1 -10 -5 -8
-15 1 -9 -6 -27 -17 -39 -11 -12 -17 -26 -13 -32 3 -6 2 -11 -2 -11 -12 0 -57
-91 -56 -112 0 -10 -4 -18 -9 -18 -6 0 -7 -7 -4 -16 3 -8 2 -12 -4 -9 -6 3
-10 -5 -10 -19 0 -14 -5 -26 -10 -26 -6 0 -9 -3 -8 -7 3 -12 -25 -113 -32
-113 -3 0 -6 -8 -7 -17 -3 -32 -12 -75 -17 -81 -3 -3 0 -12 7 -20 9 -13 9 -14
-1 -8 -13 8 -13 6 -16 -34 0 -14 -5 -31 -9 -37 -5 -8 -3 -13 5 -13 10 0 10 -2
-1 -9 -8 -6 -12 -20 -9 -39 3 -18 0 -28 -5 -25 -5 3 -7 0 -5 -8 3 -8 1 -22 -4
-32 -6 -12 -6 -23 2 -32 8 -9 8 -15 0 -20 -8 -5 -8 -11 -1 -19 6 -7 8 -16 4
-20 -11 -11 -9 -50 2 -58 6 -5 5 -8 -3 -8 -8 0 -10 -5 -6 -12 5 -8 2 -9 -11
-4 -15 5 -16 4 -5 -9 11 -13 10 -14 -4 -9 -9 3 -16 10 -16 15 0 5 -7 9 -15 9
-8 0 -15 7 -15 15 0 8 -5 15 -11 15 -5 0 -7 -6 -3 -12 3 -7 -5 -1 -18 15 -14
15 -28 27 -32 27 -11 0 -36 27 -36 39 0 6 -4 10 -9 8 -13 -3 -82 63 -76 73 3
4 -3 7 -13 6 -9 0 -16 5 -15 12 4 19 -5 14 -18 -9 -7 -14 -7 -19 0 -15 5 4 4
-6 -4 -20 -8 -15 -12 -31 -9 -36 3 -5 2 -14 -3 -21 -5 -7 -9 -31 -9 -54 1 -24
-3 -43 -9 -43 -5 0 -3 -5 5 -10 9 -6 10 -10 3 -10 -8 0 -9 -9 -3 -30 5 -16 5
-32 0 -35 -5 -3 -5 -19 0 -35 6 -21 5 -30 -3 -30 -8 0 -7 -3 2 -9 10 -7 10
-10 1 -13 -9 -3 -9 -8 3 -20 12 -12 13 -18 4 -27 -8 -8 -8 -14 -2 -19 6 -4 11
-27 13 -51 1 -25 8 -52 15 -60 9 -11 9 -13 0 -8 -7 5 -6 -4 4 -23 8 -17 12
-38 9 -46 -3 -8 -2 -12 4 -9 6 3 10 -5 10 -19 0 -13 3 -26 8 -29 4 -2 2 -2 -5
-1 -6 2 -14 -2 -17 -9 -3 -8 -5 -8 -5 2 -1 11 -4 11 -16 1 -8 -7 -15 -8 -15
-3 0 5 -9 9 -20 9 -11 0 -20 -3 -20 -7 0 -4 -16 -10 -35 -13 -19 -4 -35 -12
-35 -19 0 -8 -3 -8 -9 2 -7 10 -10 10 -13 1 -2 -7 -15 -14 -29 -15 -13 -1 -23
-7 -22 -13 1 -5 -12 -17 -30 -26 -18 -8 -28 -16 -23 -16 6 0 1 -6 -9 -14 -11
-8 -24 -12 -29 -9 -5 4 -6 1 -3 -4 4 -6 -2 -18 -13 -28 -11 -10 -20 -27 -20
-38 0 -12 -5 -17 -14 -14 -10 4 -13 -3 -12 -28 1 -18 -3 -31 -8 -27 -5 3 -7
-2 -3 -11 4 -10 1 -17 -6 -17 -8 0 -6 -4 3 -10 12 -8 12 -10 1 -10 -9 0 -12
-8 -8 -26 3 -16 0 -28 -9 -31 -11 -4 -12 -9 -3 -19 8 -10 8 -14 1 -14 -6 0 -9
-7 -6 -15 4 -8 1 -15 -6 -15 -10 0 -10 -3 0 -15 7 -8 8 -15 3 -15 -9 0 -11 -7
-14 -47 -1 -10 -6 -24 -12 -30 -6 -8 -6 -13 0 -13 5 0 10 -7 10 -15 0 -8 -3
-12 -7 -10 -3 2 -7 -24 -8 -57 -1 -34 -8 -68 -14 -75 -9 -11 -9 -17 3 -24 11
-7 11 -9 0 -9 -11 0 -11 -3 -1 -15 7 -9 8 -15 2 -15 -6 0 -9 -8 -7 -17 1 -10
-1 -27 -5 -39 -5 -11 -4 -28 1 -37 6 -9 6 -17 2 -17 -4 0 -6 -38 -3 -85 4 -69
2 -86 -10 -90 -13 -5 -13 -7 0 -16 10 -5 11 -12 5 -16 -12 -10 -13 -36 -1 -45
5 -3 3 -12 -5 -20 -53 -48 -69 -60 -85 -63 -11 -1 -18 -7 -17 -13 1 -5 -5 -16
-14 -24 -14 -11 -16 -11 -8 2 8 13 6 13 -8 1 -9 -7 -14 -17 -11 -22 3 -5 -2
-9 -10 -9 -9 0 -16 -4 -16 -10 0 -5 -7 -10 -16 -10 -8 0 -12 -5 -9 -10 3 -6
-1 -10 -10 -10 -9 0 -13 -4 -10 -10 5 -9 -7 -14 -26 -12 -4 1 -15 -9 -25 -21
l-19 -22 25 20 25 20 -19 -22 c-10 -12 -27 -25 -37 -28 -11 -4 -17 -10 -14
-14 2 -5 -7 -13 -20 -19 -14 -7 -24 -15 -23 -19 2 -5 0 -9 -5 -10 -14 -4 -35
-28 -31 -35 2 -4 -5 -9 -16 -13 -11 -3 -19 -12 -17 -18 1 -7 -2 -12 -8 -11 -5
0 -20 -10 -32 -23 -12 -12 -20 -23 -17 -23 4 0 -4 -9 -17 -19 -19 -16 -22 -22
-11 -32 6 -7 12 -8 12 -3 0 11 113 7 118 -5 3 -8 56 -6 71 3 5 4 13 1 17 -5 4
-8 9 -7 15 2 7 12 9 12 9 0 0 -11 3 -11 15 -1 12 10 15 10 15 0 0 -7 8 -10 19
-7 10 2 25 1 32 -4 8 -5 17 -3 21 4 6 9 8 9 8 -1 0 -7 5 -10 10 -7 6 3 10 1
10 -6 0 -10 3 -10 12 -1 8 8 17 8 31 1 10 -6 30 -9 43 -6 13 2 21 1 19 -3 -3
-5 2 -10 10 -14 8 -3 17 -1 20 5 4 5 11 7 16 3 5 -3 7 -9 4 -13 -2 -5 7 -6 20
-3 14 2 25 0 25 -6 0 -5 15 -9 34 -8 19 1 32 -2 30 -5 -2 -4 3 -10 12 -13 10
-4 13 -2 8 7 -6 9 -5 9 8 0 8 -7 18 -9 23 -5 4 4 5 -3 2 -15 -3 -13 0 -23 5
-23 7 0 6 -5 -1 -13 -6 -8 -8 -16 -5 -19 2 -3 5 -53 6 -112 1 -70 5 -106 12
-106 6 0 4 -5 -4 -10 -12 -7 -12 -10 -1 -10 8 0 11 -6 7 -16 -4 -9 -1 -23 5
-30 8 -10 8 -14 1 -14 -13 0 -4 -31 12 -42 8 -6 8 -8 0 -8 -14 0 -14 -30 0
-30 6 0 4 -5 -4 -10 -10 -7 -11 -10 -2 -10 8 0 12 -12 10 -34 -1 -19 3 -41 10
-49 6 -7 9 -17 5 -21 -4 -4 -1 -11 7 -16 12 -8 13 -10 1 -10 -11 0 -10 -5 4
-20 13 -14 14 -20 5 -20 -10 0 -9 -4 2 -17 9 -10 13 -24 11 -30 -3 -7 0 -13 5
-13 5 0 8 -11 7 -24 -2 -13 2 -35 9 -48 7 -12 13 -25 13 -28 1 -3 6 -18 12
-33 6 -16 11 -35 11 -43 0 -8 5 -14 11 -14 6 0 9 -7 5 -15 -3 -8 1 -18 9 -22
14 -8 15 -11 15 -39 0 -8 4 -13 8 -10 4 2 9 -7 10 -22 1 -15 7 -28 12 -30 6
-2 10 -10 10 -19 0 -8 7 -21 15 -30 8 -8 13 -19 10 -24 -4 -5 -1 -9 4 -9 6 0
11 -7 11 -15 0 -9 7 -18 15 -21 8 -4 12 -10 9 -15 -3 -5 0 -9 5 -9 6 0 11 -7
11 -16 0 -9 9 -27 20 -41 11 -14 17 -29 14 -34 -3 -5 2 -9 10 -9 9 0 16 -9 16
-20 0 -11 7 -20 16 -20 8 0 12 -4 9 -10 -3 -5 -1 -10 4 -10 6 0 11 -7 11 -16
0 -8 4 -13 9 -10 5 3 12 -1 15 -10 4 -10 2 -13 -6 -8 -7 4 -8 3 -4 -4 4 -7 14
-12 21 -12 9 0 12 -6 8 -18 -3 -9 -3 -14 1 -10 10 8 36 -14 29 -24 -2 -5 1 -8
8 -8 7 0 10 -3 6 -6 -7 -8 17 -34 32 -34 6 0 11 -4 11 -10 0 -5 12 -21 27 -36
16 -15 19 -21 8 -13 -18 13 -19 13 -6 -3 7 -10 19 -18 25 -18 14 0 56 -45 56
-60 0 -6 13 -18 30 -29 16 -10 27 -21 23 -24 -3 -4 1 -7 10 -7 10 0 17 -4 17
-10 0 -5 7 -10 16 -10 8 0 12 -4 9 -10 -3 -5 1 -10 9 -10 9 0 16 -4 16 -10 0
-5 7 -10 16 -10 8 0 12 -4 9 -10 -3 -5 -1 -10 6 -10 6 0 18 -8 26 -17 10 -12
12 -13 8 -3 -4 10 -2 9 8 -2 8 -10 19 -18 26 -18 6 0 11 -4 11 -10 0 -14 42
-50 58 -50 8 0 23 -10 33 -22 11 -11 19 -16 19 -9 0 7 10 3 22 -9 12 -11 28
-20 35 -20 7 0 13 -4 13 -10 0 -5 7 -10 15 -10 8 0 15 -4 15 -10 0 -5 7 -10
15 -10 8 0 15 -5 15 -11 0 -5 4 -8 9 -4 5 3 16 -2 24 -10 9 -8 23 -15 31 -15
9 0 16 -4 16 -10 0 -5 5 -10 11 -10 5 0 7 6 3 13 -7 10 18 -5 36 -23 13 -13
51 -30 45 -21 -11 19 3 12 26 -12 12 -12 19 -16 15 -10 -5 9 -2 11 8 7 9 -3
16 -13 16 -21 0 -13 2 -13 17 -2 17 13 17 12 0 -13 -11 -18 -13 -28 -6 -28 8
0 8 -4 -1 -15 -7 -8 -10 -24 -7 -35 3 -11 2 -20 -3 -20 -4 0 -6 -11 -5 -25 2
-14 -1 -25 -7 -25 -6 0 -5 -6 2 -15 7 -9 8 -15 2 -15 -6 0 -9 -8 -8 -17 2 -10
-2 -21 -8 -25 -7 -5 -6 -8 3 -8 11 0 9 -4 -5 -15 -13 -10 -14 -14 -5 -15 11 0
11 -3 1 -15 -7 -8 -9 -15 -5 -15 4 0 2 -7 -5 -15 -7 -8 -9 -15 -5 -15 4 0 2
-7 -5 -15 -6 -8 -9 -19 -5 -25 3 -5 1 -10 -6 -10 -8 0 -7 -5 2 -17 9 -11 10
-14 2 -10 -8 5 -14 -2 -19 -20 -3 -15 -8 -35 -11 -43 -11 -28 -11 -40 -2 -40
5 0 12 7 15 15 4 8 14 15 23 16 10 0 11 2 4 6 -7 2 -13 9 -13 14 0 4 7 5 17 2
10 -4 14 -2 9 5 -3 6 3 13 15 17 12 4 18 12 15 21 -3 7 -2 13 2 13 19 -3 33 2
27 10 -3 5 4 12 15 16 11 4 19 9 17 13 -5 10 30 42 37 34 3 -3 6 0 6 6 0 6 21
27 46 47 26 19 44 35 40 35 -4 0 -1 7 8 15 8 8 19 15 25 15 5 0 19 11 30 26
11 14 23 26 28 27 4 1 7 6 5 10 -1 5 2 6 7 3 5 -4 12 -2 16 4 4 6 11 8 16 5 5
-4 9 -2 9 2 0 5 7 18 16 29 8 10 13 13 9 7 -4 -9 -1 -11 9 -7 9 3 13 10 10 15
-3 5 1 9 9 9 8 0 18 7 21 16 3 8 10 13 15 10 5 -3 11 1 15 9 3 8 12 15 21 15
8 0 15 5 15 11 0 5 4 8 9 5 5 -3 12 1 15 10 3 9 12 14 19 11 15 -5 39 18 29
29 -4 4 0 5 10 1 9 -3 23 2 33 13 10 11 22 17 26 14 5 -3 9 0 9 6 0 6 5 8 10
5 6 -3 10 -2 10 2 0 12 56 44 64 36 3 -3 6 1 6 11 0 9 5 14 10 11 6 -3 10 0
10 7 0 10 2 10 9 -1 7 -11 11 -10 20 7 6 12 17 19 25 16 7 -3 16 2 19 10 4 9
13 13 22 10 8 -3 15 -1 15 6 0 6 5 8 10 5 5 -3 10 -1 10 6 0 7 3 9 7 6 3 -4
15 1 26 10 11 10 18 13 14 7 -3 -6 0 -11 8 -11 8 0 13 3 11 6 -2 3 8 15 22 25
14 11 22 14 18 8 -4 -7 -3 -12 2 -12 6 0 12 7 15 15 4 8 15 12 27 10 14 -3 20
1 20 13 0 10 3 13 8 7 4 -5 15 -11 25 -11 13 -1 15 2 8 10 -7 8 -5 12 7 13 25
2 45 8 59 16 6 4 19 4 29 0 14 -5 16 -3 11 10 -6 15 -4 16 14 6 15 -8 19 -8
15 0 -4 6 -1 12 6 13 7 0 18 2 23 2 6 1 15 5 22 9 6 4 19 4 29 0 14 -5 16 -3
11 12 -6 15 -5 16 8 5 9 -7 15 -8 15 -2 0 5 14 9 31 8 18 -1 34 4 39 13 7 11
9 12 10 3 0 -10 4 -9 16 3 12 12 19 13 24 5 6 -9 9 -9 15 0 4 6 13 9 21 6 8
-3 14 0 14 7 0 8 4 7 10 -3 8 -12 10 -12 16 3 5 14 9 15 20 6 11 -9 15 -8 20
5 3 9 11 13 17 9 16 -10 47 -11 41 -2 -4 7 5 9 69 9 15 0 27 4 27 10 0 6 9 6
25 0 17 -6 25 -6 25 1 0 6 4 8 9 5 5 -4 12 0 14 6 4 10 6 9 6 -1 1 -11 4 -11
16 -1 12 10 15 10 15 0 0 -10 3 -10 14 -1 11 9 16 9 22 0 5 -9 10 -9 18 2 13
17 166 20 166 4 0 -5 5 -3 10 5 5 8 10 10 10 5 0 -6 26 -8 70 -5 44 3 70 1 70
-5 0 -5 5 -3 10 5 5 8 10 10 10 5 0 -6 9 -11 20 -11 11 0 20 4 20 9 0 5 11 2
25 -7 16 -11 25 -12 25 -5 0 8 6 7 17 -2 15 -12 16 -12 8 1 -8 13 -7 13 8 1
13 -10 17 -10 17 -1 0 10 3 10 15 0 8 -7 21 -10 29 -7 8 3 17 1 20 -6 2 -7 5
-4 5 6 1 17 2 17 17 3 13 -14 17 -14 30 -2 8 8 14 19 13 23 -1 4 0 11 1 16 6
19 5 33 -4 39 -6 4 -5 12 3 21 9 12 9 16 -1 20 -10 4 -10 6 -1 6 9 1 10 8 4
24 -5 14 -5 30 0 40 7 11 6 17 -1 17 -8 0 -8 6 0 20 8 14 8 20 0 20 -7 0 -8 6
-1 18 7 13 6 23 -2 32 -9 10 -9 11 2 5 11 -6 13 -3 9 13 -4 13 -1 22 5 22 7 0
5 5 -3 10 -11 7 -11 10 -2 10 10 0 10 5 2 20 -6 11 -7 20 -3 20 4 0 8 20 8 45
0 25 -4 45 -8 45 -5 0 -5 5 -1 12 10 15 9 82 -1 98 -4 7 -2 16 6 21 12 7 11 9
-1 9 -13 0 -13 1 0 11 11 8 12 12 3 16 -7 2 -13 9 -13 14 0 6 6 7 13 4 6 -4 4
0 -5 8 -12 9 -14 17 -7 24 8 8 7 13 0 17 -8 5 -8 13 -1 27 8 13 7 19 0 19 -7
0 -7 7 1 21 9 17 8 23 -2 30 -11 7 -11 9 1 9 13 0 13 1 0 10 -13 9 -13 10 0
10 12 0 13 2 1 9 -11 7 -11 9 0 14 11 4 11 6 1 6 -10 1 -10 6 -2 21 6 12 7 20
1 20 -10 0 -9 19 2 37 5 8 4 13 -3 13 -5 0 -9 13 -8 28 1 15 -1 33 -6 40 -4 7
-2 12 4 12 8 0 8 6 0 20 -6 11 -7 20 -3 20 4 0 1 5 -7 10 -11 7 -11 10 -2 10
10 0 10 5 2 20 -8 15 -8 20 2 20 9 0 9 3 2 8 -6 4 -10 18 -10 32 0 14 -3 31
-8 38 -4 6 -3 12 3 12 7 0 7 8 1 24 -5 13 -6 27 -3 30 4 3 1 6 -4 6 -12 0 -12
25 0 36 4 4 2 13 -4 21 -6 7 -9 13 -5 13 3 0 1 11 -4 25 -7 18 -6 25 3 25 8 0
7 4 -3 10 -9 6 -11 10 -3 10 14 0 6 31 -11 42 -7 5 -6 8 3 8 11 0 11 3 1 15
-7 8 -9 15 -5 15 4 0 1 8 -6 17 -10 11 -10 14 -1 9 6 -4 12 -2 12 3 0 6 -6 11
-12 11 -9 0 -8 4 2 10 12 7 12 10 1 10 -7 0 -11 6 -7 15 3 8 0 15 -6 15 -7 0
-6 5 2 15 10 12 10 15 0 15 -8 0 -10 3 -7 7 4 3 2 12 -4 20 -9 10 -8 13 1 13
9 0 8 7 -4 24 -10 16 -12 27 -6 31 6 4 4 13 -6 22 -10 10 -12 18 -5 22 6 4 6
12 1 20 -4 8 -6 20 -3 28 3 7 1 13 -4 13 -5 0 -10 7 -10 15 0 8 4 15 9 15 5 0
2 7 -7 16 -13 14 -14 19 -3 25 11 7 11 9 0 9 -7 0 -10 5 -7 10 3 6 0 10 -7 10
-9 0 -9 3 2 10 13 9 13 10 0 10 -13 0 -13 1 0 10 12 7 12 10 1 10 -7 0 -11 6
-8 15 4 8 2 17 -4 21 -5 3 -7 14 -4 25 4 11 2 19 -5 19 -8 0 -10 8 -7 21 3 12
0 22 -9 26 -11 4 -12 9 -3 19 8 10 8 14 0 14 -6 0 -11 13 -11 29 0 17 -4 32
-10 36 -5 3 -7 12 -3 20 3 8 1 15 -5 15 -6 0 -8 9 -5 20 3 13 0 20 -8 20 -11
0 -11 2 1 10 8 5 10 10 4 10 -10 0 -22 37 -26 80 0 8 -5 21 -11 28 -6 8 -5 12
4 12 10 1 9 5 -4 14 -13 10 -15 16 -7 21 9 6 9 10 -1 16 -8 4 -14 14 -14 21
-2 33 -18 67 -29 61 -6 -4 -5 1 3 10 9 11 10 17 2 17 -6 0 -11 9 -11 20 0 11
-5 20 -11 20 -8 0 -8 5 1 15 10 12 10 15 0 15 -7 0 -10 6 -7 14 3 8 -1 17 -9
20 -9 3 -13 10 -9 15 3 5 1 12 -4 15 -5 3 -7 15 -4 26 3 12 0 20 -8 20 -7 0
-9 3 -6 7 4 3 1 13 -6 21 -10 13 -9 14 3 7 12 -7 13 -6 3 7 -7 8 -10 18 -6 21
3 4 2 7 -4 7 -9 0 -24 43 -27 76 -1 6 -8 20 -16 30 -13 16 -13 17 0 9 13 -8
13 -7 0 11 -8 10 -19 22 -25 26 -6 5 -5 8 3 8 7 0 10 5 7 10 -4 6 -11 8 -16 5
-5 -3 -6 0 -3 8 3 8 -6 37 -19 64 -13 27 -23 57 -21 66 1 10 -4 17 -12 17 -9
0 -12 5 -9 10 3 6 2 10 -4 10 -6 0 -8 6 -5 14 3 8 0 17 -5 21 -6 3 -9 11 -6
16 4 5 1 9 -4 9 -6 0 -11 8 -11 18 0 10 -8 28 -17 41 -9 14 -11 21 -5 17 8 -5
10 -2 6 8 -3 9 -10 16 -16 16 -5 0 -8 8 -7 18 3 31 -1 43 -11 37 -5 -3 -10 1
-10 10 0 13 8 16 38 14 20 -2 43 -7 50 -12 8 -6 12 -5 12 4 0 10 3 11 8 3 8
-13 112 -23 112 -12 0 4 7 5 15 2 8 -4 12 -11 8 -17 -4 -6 -1 -7 8 -1 18 11
42 11 50 0 4 -4 16 -3 28 3 15 8 21 9 21 1 0 -6 5 -8 13 -3 17 10 37 13 37 4
0 -13 44 -5 48 8 3 9 7 9 18 0 8 -6 14 -8 14 -3 0 5 28 8 62 7 35 -1 71 3 80
8 13 7 18 6 18 -3 0 -9 3 -9 10 2 8 12 10 12 10 1 0 -9 4 -10 13 -4 6 6 20 9
30 8 9 -2 17 2 17 8 0 7 5 5 10 -3 8 -12 10 -12 10 -1 0 9 8 12 25 9 14 -3 25
-1 25 6 0 6 5 4 10 -4 7 -12 10 -12 10 -1 0 7 6 11 15 8 8 -4 17 -2 20 4 4 5
10 7 15 4 5 -3 11 -1 15 4 3 6 12 8 20 4 9 -3 15 1 15 8 0 11 3 11 10 -1 8
-12 10 -12 10 -1 0 8 3 11 6 8 4 -3 15 -2 25 4 14 7 19 6 19 -3 0 -8 3 -9 8
-3 10 14 56 39 48 27 -3 -6 2 -8 14 -5 11 3 17 10 14 15 -4 6 1 8 14 4 11 -4
23 -2 27 4 3 6 11 8 16 5 5 -4 9 -1 9 5 0 6 4 9 9 5 5 -3 12 -1 16 5 3 5 17
10 30 10 13 0 27 5 30 10 4 6 10 8 15 5 5 -3 11 -1 15 4 3 6 13 7 22 4 12 -5
15 -2 11 8 -4 9 1 15 11 16 39 3 57 9 69 21 7 6 20 12 28 12 8 0 14 3 14 8 0
4 11 12 25 19 19 8 24 8 19 0 -3 -7 1 -4 9 6 8 9 21 17 29 17 8 0 25 10 38 23
14 12 26 21 27 20 13 -11 66 31 55 42 -4 5 -2 5 4 2 6 -3 27 5 47 18 20 14 41
25 47 25 6 0 8 5 4 12 -5 8 -2 9 10 5 9 -4 15 -3 12 2 -7 11 22 23 35 16 5 -4
6 2 2 11 -5 12 -2 16 8 12 14 -4 52 26 43 35 -3 3 7 8 21 11 14 4 23 11 20 16
-3 5 4 11 15 15 11 3 20 13 20 21 0 8 4 13 9 9 6 -3 15 4 21 15 6 11 14 19 18
17 4 -1 22 12 41 28 18 17 37 29 42 28 4 -2 6 3 4 10 -3 6 11 23 29 37 20 15
33 32 31 42 -3 12 1 15 12 11 11 -4 14 -2 9 5 -4 7 3 16 18 23 14 7 23 16 20
20 -3 5 2 9 11 9 9 0 13 5 10 10 -3 6 0 13 8 16 18 7 10 44 -9 44 -8 0 -19 12
-24 26 -6 14 -19 28 -30 31 -11 3 -18 9 -15 13 6 10 -24 22 -36 14 -5 -3 -9
-1 -9 4 0 16 -40 56 -40 41 -1 -8 -6 -6 -13 7 -7 12 -18 19 -24 17 -7 -3 -13
3 -13 12 0 9 -4 14 -9 10 -5 -3 -16 2 -24 10 -9 8 -25 15 -36 15 -12 0 -21 4
-21 9 0 8 -28 19 -69 27 -8 1 -17 7 -20 13 -4 6 -24 12 -44 13 -20 2 -37 6
-37 11 0 4 -14 7 -31 7 -21 0 -28 4 -23 13 6 9 4 9 -8 -1 -13 -10 -17 -10 -22
4 -5 12 -9 14 -20 5 -7 -6 -15 -9 -17 -7 -2 3 -24 7 -48 10 -24 3 -46 7 -49
10 -2 3 -13 1 -23 -5 -13 -7 -19 -6 -19 1 0 8 -6 8 -20 0 -11 -6 -20 -7 -20
-2 0 12 -43 9 -52 -3 -5 -6 -8 -4 -8 5 -1 11 -4 10 -15 -4 -8 -11 -15 -14 -15
-7 0 7 -5 9 -12 5 -7 -5 -28 -7 -46 -5 -26 2 -32 0 -26 -11 5 -9 2 -9 -11 2
-10 8 -16 10 -12 4 4 -8 -5 -14 -26 -17 -44 -6 -55 3 -23 20 14 7 26 18 26 23
0 6 8 10 17 10 9 0 14 3 11 6 -8 7 42 60 53 57 5 -2 9 4 9 12 0 8 4 14 9 12 5
-1 17 7 26 18 9 11 14 13 10 5 -6 -13 -5 -13 7 0 7 9 28 26 46 39 18 12 30 27
27 32 -4 5 1 6 9 3 9 -3 16 -1 16 6 0 6 5 8 10 5 6 -3 10 2 10 11 0 10 3 15 6
11 3 -3 17 6 29 19 13 14 26 25 29 25 20 -3 26 0 21 8 -5 9 23 23 37 18 4 -1
15 8 23 21 9 12 22 22 29 22 8 0 19 7 26 15 7 9 20 13 28 10 9 -3 12 0 9 9 -4
10 -1 13 8 9 8 -3 18 2 21 11 3 9 10 14 14 11 4 -3 13 2 20 10 7 8 16 12 21 9
5 -3 9 0 9 6 0 6 4 9 9 6 4 -3 19 3 31 14 12 11 27 17 31 14 5 -3 9 0 9 6 0 6
4 9 9 5 5 -3 16 2 24 10 9 8 21 15 28 15 6 0 18 8 26 18 10 11 12 12 8 2 -4
-10 -2 -10 8 2 11 14 16 15 27 5 10 -9 11 -9 6 1 -4 7 -1 12 9 12 8 0 18 6 21
14 3 8 12 12 20 9 8 -3 14 -1 14 4 0 5 6 10 13 11 51 7 61 10 65 20 2 7 8 10
13 6 5 -3 9 1 9 8 0 10 3 9 10 -2 8 -12 10 -12 15 2 4 9 15 15 25 13 10 -2 21
4 25 13 5 14 7 14 15 2 6 -9 10 -10 10 -3 0 6 3 19 7 28 5 14 2 16 -14 11 -12
-4 -25 -1 -33 9 -7 8 -19 15 -27 15 -8 0 -21 7 -30 15 -8 8 -19 13 -24 10 -5
-4 -9 -1 -9 4 0 6 -9 11 -20 11 -11 0 -20 4 -20 9 0 5 -7 12 -16 15 -10 4 -13
2 -9 -7 4 -6 0 -4 -8 5 -8 10 -29 19 -48 22 -18 2 -35 8 -37 15 -2 6 -8 9 -13
5 -5 -3 -9 1 -9 8 0 9 -3 9 -10 -2 -7 -11 -10 -11 -10 -2 0 7 -4 10 -10 7 -5
-3 -10 -2 -10 4 0 6 -7 8 -15 5 -8 -4 -15 -1 -15 5 0 6 -7 8 -15 5 -8 -4 -15
-1 -15 5 0 6 -7 8 -15 5 -8 -4 -15 -1 -15 5 0 6 -7 8 -15 5 -8 -4 -15 -2 -15
4 0 6 -9 8 -20 5 -12 -3 -20 0 -20 6 0 7 -4 9 -10 6 -5 -3 -10 0 -10 7 0 9 -3
9 -10 -2 -9 -13 -10 -13 -10 0 0 13 -1 13 -10 0 -6 -9 -10 -11 -10 -3 0 7 -7
10 -15 7 -9 -4 -15 0 -15 7 0 11 -2 11 -9 0 -7 -11 -13 -12 -23 -3 -8 6 -29
12 -46 14 -18 1 -32 7 -32 12 0 5 -2 7 -6 4 -3 -3 -21 -2 -40 2 -18 4 -34 4
-34 -1 0 -5 -11 -4 -24 1 -13 5 -27 6 -30 3 -3 -4 -6 -1 -6 7 0 10 -4 10 -17
-1 -14 -12 -15 -12 -9 -1 7 11 4 12 -13 3 -13 -8 -21 -8 -21 -2 0 7 -8 7 -24
1 -15 -5 -27 -5 -35 3 -8 8 -11 7 -11 -4 0 -12 -2 -12 -10 1 -5 8 -10 12 -10
9 0 -4 -16 -3 -35 1 -19 4 -35 4 -35 0 0 -5 -10 -6 -22 -2 -12 3 -19 1 -15 -4
3 -5 -3 -10 -13 -10 -10 0 -16 4 -13 9 3 5 -3 4 -14 -2 -14 -7 -23 -7 -31 1
-9 9 -12 9 -12 -1 0 -11 -3 -11 -15 -1 -8 7 -15 8 -15 3 0 -5 -10 -9 -22 -10
-79 -2 -163 -14 -166 -23 -3 -8 -8 -7 -18 1 -11 9 -14 9 -14 0 0 -7 -4 -9 -10
-6 -5 3 -10 0 -10 -7 0 -9 -3 -9 -10 2 -5 8 -10 10 -10 4 0 -10 -6 -12 -47
-15 -10 -1 -24 -6 -30 -12 -9 -6 -13 -5 -13 4 0 9 -3 10 -8 4 -4 -5 -18 -12
-32 -14 -14 -1 -28 -8 -32 -15 -4 -6 -8 -8 -8 -3 0 4 -15 1 -34 -7 -19 -8 -37
-12 -40 -8 -3 3 -6 1 -6 -5 0 -6 -7 -14 -16 -17 -10 -4 -13 -2 -8 7 5 7 1 6
-10 -2 -10 -8 -25 -16 -34 -17 -32 -3 -47 -9 -59 -24 -11 -13 -12 -13 -13 0
-1 12 -3 12 -14 -2 -7 -10 -16 -15 -19 -11 -4 3 -9 -1 -13 -10 -3 -9 -12 -13
-20 -10 -8 3 -14 0 -14 -6 0 -6 -9 -11 -20 -11 -11 0 -20 -4 -20 -10 0 -5 -8
-10 -17 -10 -24 -1 -55 -25 -45 -36 4 -4 -1 -2 -10 5 -15 11 -19 11 -24 -2 -3
-9 -18 -19 -34 -22 -16 -3 -31 -13 -34 -21 -3 -9 -10 -12 -16 -9 -5 3 -10 -1
-10 -10 0 -9 -5 -13 -11 -10 -6 4 -17 -2 -25 -14 -8 -12 -23 -21 -33 -21 -11
0 -21 -6 -24 -14 -3 -8 -19 -21 -36 -29 -27 -13 -29 -13 -24 2 3 9 9 21 12 26
3 6 6 16 7 22 1 7 9 20 18 29 9 8 14 20 10 25 -3 5 4 22 15 38 11 15 18 31 14
35 -3 3 -1 6 6 6 7 0 9 5 6 10 -3 6 -1 10 5 10 6 0 8 5 5 10 -3 6 -1 10 4 10
6 0 10 3 9 8 -3 10 34 72 44 72 4 0 5 6 2 14 -3 8 5 24 19 36 14 12 23 29 20
36 -3 8 0 14 7 14 6 0 8 5 5 10 -3 6 1 13 9 16 9 3 16 10 16 16 0 5 -6 6 -12
3 -7 -4 -5 0 5 8 9 8 17 19 17 26 0 6 5 11 10 11 6 0 10 7 10 15 0 9 7 18 15
21 8 4 12 10 9 16 -3 5 4 16 16 25 12 8 19 21 16 29 -3 8 1 14 10 14 8 0 13 4
10 9 -3 5 1 14 10 21 8 7 13 19 10 27 -3 8 -2 12 3 8 14 -8 43 25 37 42 -4 8
-1 11 5 8 6 -4 13 2 16 14 3 12 9 21 14 21 5 0 9 7 9 16 0 8 -4 12 -10 9 -5
-3 -10 -2 -10 3 0 5 -7 9 -15 9 -8 0 -11 -5 -8 -10z"/>
<path d="M2720 6420 c-9 -6 -10 -10 -3 -10 6 0 15 5 18 10 8 12 4 12 -15 0z"/>
</g>
</svg>
