<?xml version="1.0" standalone="no"?>
<!DOCTYPE svg PUBLIC "-//W3C//DTD SVG 20010904//EN"
 "http://www.w3.org/TR/2001/REC-SVG-20010904/DTD/svg10.dtd">
<svg version="1.0" xmlns="http://www.w3.org/2000/svg"
 width="486.000000pt" height="486.000000pt" viewBox="0 0 486.000000 486.000000"
 preserveAspectRatio="xMidYMid meet">
<metadata>
Created by potrace 1.11, written by Peter Selinger 2001-2013
</metadata>
<g transform="translate(0.000000,486.000000) scale(0.100000,-0.100000)"
fill="#000000" stroke="none">
<path d="M1608 4813 c54 -69 155 -236 224 -373 37 -74 68 -138 68 -143 0 -4
-33 15 -72 42 -163 110 -376 195 -578 231 -83 15 -143 18 -285 15 -193 -3
-295 -19 -451 -71 -90 -30 -264 -110 -264 -122 0 -4 35 -20 78 -36 167 -62
416 -205 562 -324 86 -70 132 -113 126 -119 -2 -3 -31 -1 -63 5 -127 22 -294
-1 -419 -58 -73 -33 -173 -101 -218 -148 l-28 -30 83 -88 c161 -168 341 -293
552 -385 123 -53 341 -113 457 -126 95 -10 293 -10 388 0 l72 7 -16 -37 c-171
-395 -314 -893 -364 -1263 -6 -47 -13 -95 -15 -108 -4 -22 -8 -63 -24 -227
-19 -190 -20 -735 -1 -764 4 -7 32 -7 80 -1 106 12 398 4 510 -15 336 -56 641
-184 902 -378 91 -67 151 -120 252 -222 57 -58 77 -73 72 -55 -30 98 -65 244
-70 290 l-6 55 128 61 c248 120 442 289 599 524 143 213 236 509 242 770 2 75
7 117 14 122 19 12 179 47 243 54 33 4 66 8 74 10 8 1 48 3 88 3 43 1 72 5 72
11 0 17 -189 201 -277 269 l-80 62 -2 112 c-2 215 -50 520 -90 575 -49 68
-123 114 -205 126 -22 4 -41 8 -43 10 -2 1 6 37 17 80 11 42 21 112 23 154 3
79 -12 225 -26 238 -4 4 -29 -13 -55 -37 -49 -48 -136 -119 -144 -119 -2 0 -5
30 -6 68 -1 37 -4 85 -7 107 -4 22 -9 54 -11 70 -8 51 -34 143 -61 218 -27 77
-101 227 -112 227 -3 0 -14 -26 -23 -59 -20 -68 -89 -221 -94 -206 -92 328
-259 567 -513 734 -80 52 -262 141 -290 141 -16 0 -14 -7 18 -85 16 -39 38
-103 49 -143 l20 -72 -71 59 c-175 142 -374 251 -586 321 -127 41 -329 80
-418 80 l-55 0 30 -37z"/>
</g>
</svg>
